<svg xmlns="http://www.w3.org/2000/svg" xmlns:xlink="http://www.w3.org/1999/xlink" viewBox="0 0 2500 2500" xmlns:v="https://vecta.io/nano"><path d="M1946.21 1895.18c-37.11 39.07-72.22 64.26-99.96 84.16-326.08 233.97-711.93 165.77-793.93 149.11-121.09-24.59-355.16-72.13-524.39-271.14-256.03-301.08-216.16-775.43-17.57-1088.55 36.33-57.28 228.21-375.17 618.21-426.15 236.02-30.85 511.15 31.37 710.39 198.3 418.23 350.39 388.45 1058.23 107.25 1354.27z" fill="#efeff4"/><path d="M360.17 355.33c-2.49-10.58 12.4-17.62 21.52-10.22 92.57 75.06 314.99 299.85 259.56 692.67-69.55 492.86 49.35 672.7 197.35 782.4 0 0-203.25-51.59-331.12-234.07-313.97-448.05-103.1-1042.62-147.31-1230.78z" fill="#d7d9e0"/><path d="M430.62 509.27c11.58 54.87 21.9 109.9 29.88 165.19 8.31 55.24 14.68 110.67 19.04 166.19 4.11 55.53 7.01 111.12 7.18 166.73.45 55.61-1.86 111.17-4.4 166.95-2.19 55.76-4.75 111.92-.67 168.48 4.01 56.44 15.9 113.38 39.47 166.76 5.89 13.3 12.09 26.56 19.13 39.38 6.77 12.93 14.2 25.61 21.9 38.17 15.54 25.05 33.02 49.26 52.51 72.23 39.12 45.87 86.29 86.56 138.26 121 5.47 3.62 13.31 2.73 17.51-1.99 4.12-4.64 3.2-11.25-2.01-14.92l-.04-.03c-12.37-8.69-24.6-17.48-36.34-26.72-5.96-4.54-11.67-9.3-17.48-13.96-5.6-4.85-11.42-9.51-16.84-14.5-22.07-19.64-42.51-40.6-61.06-62.76-37.31-44.11-67.18-93.26-89.8-144.22-10.98-25.6-19.76-51.85-26.18-78.59-6.39-26.75-10.41-53.96-12.63-81.4-4.45-54.9-2.44-110.5-.72-166.27 1.64-55.78 2.84-111.85 1.37-167.87-.65-28.01-1.88-56.01-3.69-83.97l-3.03-41.92-4.07-41.85c-6.01-55.75-13.99-111.32-23.98-166.59-10.3-55.23-22.3-110.2-36.73-164.69-.41-1.56-2.21-2.53-4.01-2.17-1.77.35-2.89 1.83-2.57 3.34z" fill="#fff"/><path d="M529.22 1487.47c-10.55 12.75-30.69 10.57-38.48-4.03-42.94-80.58-143.75-319.4-21.35-609.88 103.35-245.3 136.09-388.13 146.45-454 2.19-13.93 20.89-16.96 27.4-4.46 71.81 138.01 268.37 610.49-114.02 1072.37z" fill="#c6c9d3"/><path d="M508.08 1480.04c-.4.1-.81.16-1.24.18a6.47 6.47 0 0 1-6.77-6.14c-.2-4.04-18.32-407.99 109.98-755.55 1.24-3.34 4.95-5.06 8.3-3.82s5.06 4.95 3.82 8.3c-127.37 345.03-109.4 746.43-109.2 750.45.17 3.13-1.95 5.85-4.89 6.58z" fill="#fff"/><path d="M2065.35 587.23H680.69c-59.68 0-107.01 47-105.7 104.56l27.96 1222.87c1.21 52.75 48.29 95.06 105.13 94.63l1319.37-10.02c56.01-.43 102.67-43.05 104.26-95.38l36.86-1212.98c1.73-57.09-44.46-103.68-103.22-103.68z" fill="#979aa0"/><path d="M1948.8 694.15l-170.02.1c-13.7.01-26.32 7.65-32.44 19.64l-92.52 181c-6.05 11.84-18.58 19.39-32.19 19.41l-495.24.87c-13.68.02-26.23-7.51-32.23-19.36l-91.76-181.42c-6.08-12.02-18.76-19.69-32.56-19.68l-171.84.1c-59.39.03-106.68 46.52-105.59 103.63l19.33 1016.82c1.01 53.08 48.03 95.64 105 95.24l1104.2-7.83c56.26-.4 102.98-43.32 104.38-96.05l26.85-1009.72c1.52-56.69-44.75-102.78-103.37-102.75z" fill="#5c5e61"/><path d="M1653.08 706.93c-4.9-7.84-13.66-12.6-23.17-12.6l-510.16.29c-9.56.01-18.43 4.78-23.42 12.65s-5.4 17.69-1.08 25.95l62.15 119.05c6.07 11.63 18.48 18.97 31.98 18.95l369.88-.56c13.46-.02 25.85-7.38 31.99-19.01l62.74-118.87c4.33-8.23 3.99-18.02-.91-25.85z" fill="#fff"/><path d="M645.75 1133.89c-1.67 0-3.06-1.28-3.09-2.88l-8.51-406.93c-1.06-50.48 42.1-91.69 96.18-91.71l80.56-.02c1.7 0 3.1 1.33 3.12 2.98s-1.33 2.98-3.03 2.98l-80.54.02c-50.67.01-91.12 38.54-90.14 85.74l8.43 406.92c.02 1.6-1.31 2.9-2.98 2.9zm1437.35 743.19c-1.61.01-2.87-1.2-2.83-2.7l8.87-310.55c.04-1.54 1.4-2.79 3.02-2.79 1.62-.01 2.91 1.23 2.86 2.76l-8.93 310.54c-.05 1.5-1.39 2.72-2.99 2.74z" fill="#b9bcc5"/><path d="M1128.2 736.99l123.51 104.23c.44.37 1 .57 1.57.57h81.56a2.44 2.44 0 0 0 2.12-3.64l-58.8-104.23a2.42 2.42 0 0 0-2.12-1.24h-146.27c-2.27.01-3.31 2.85-1.57 4.31z" fill="#f7eba6"/><path d="M1412.8 831.89l41.16-94.93a7.09 7.09 0 0 1 6.5-4.27h122.08c6.25 0 9.44 7.49 5.11 12l-91.28 94.93c-1.34 1.39-3.18 2.17-5.11 2.17h-71.96c-5.1.01-8.53-5.22-6.5-9.9z" fill="#ecc538"/><path d="M1342.68 838.31L1290 742.75c-2.49-4.51.79-10.03 5.94-10.01l141.86.6c4.77.02 8.02 4.85 6.23 9.28l-38.28 94.96c-1.03 2.55-3.51 4.23-6.26 4.23h-50.9c-2.46-.01-4.72-1.35-5.91-3.5z" fill="#f3d33f"/><defs><path id="A" d="M1653.08 706.93c-4.9-7.84-13.66-12.6-23.17-12.6l-510.16.29c-9.56.01-18.43 4.78-23.42 12.65s-5.4 17.69-1.08 25.95l62.15 119.05c6.07 11.63 18.48 18.97 31.98 18.95l369.88-.56c13.46-.02 25.85-7.38 31.99-19.01l62.74-118.87c4.33-8.23 3.99-18.02-.91-25.85z"/></defs><clipPath id="B"><use xlink:href="#A"/></clipPath><path d="M1383.3 884.7c-.02 4.42-3.77 7.71-8.36 7.72h-1.51c-4.6.01-8.31-3.27-8.29-7.69l.46-128.09c.02-4.46 3.77-6.13 8.39-6.13h1.52c4.62 0 8.35 1.64 8.33 6.1l-.54 128.09z" clip-path="url(#B)" fill="#5c5e61"/><path d="M1914.22 2077.63l-47.17-4.44-74.17-79.13c-5.87-6.25-14.48-10-23.52-10h-499.8c-9.05 0-17.65 3.75-23.52 10l-74.17 79.05-47.35 4.48.11 57.76c.2 3.52 1.05 8.53 2.74 11.85 5.05 9.94 16 17.81 28.06 17.81h728.08c12.06 0 23.01-7.85 28.07-17.79 1.69-3.32 2.54-7.58 2.74-11.1l-.1-58.49z" fill="#888b8f"/><path d="M1907.01 2062.44l-114.13-119.31c-5.87-6.25-14.48-7.63-23.52-7.63h-499.8c-9.05 0-17.65 1.38-23.52 7.63l-114.13 120.42c-7.82 8.33-9.59 20.03-4.54 29.97s16 16.31 28.06 16.31h728.08c12.06 0 23.01-6.91 28.07-16.85 5.03-9.94 3.26-22.21-4.57-30.54z" fill="#c6c9d3"/><path d="M1492.88 2089.97c-22.66 0-40.38-7.23-48.62-16.81-7.53-8.77-6.3-19.52 3.46-30.18 5.23-6.06 16.18-12.59 28.11-12.59h87.23c11.96 0 22.91 5.66 28.12 11.73 9.76 10.66 10.99 22.67 3.46 31.44-8.23 9.59-25.96 16.41-48.63 16.41h-53.13z" fill="#efeff4"/><path d="M1563.07 2041.43h-87.22c-4.91 0-11.83 4.09-15.44 8.37-15.67 16.98-1.12 31.35 32.49 31.35h53.13c33.61 0 48.16-14.38 32.49-31.35-3.63-4.3-10.54-8.37-15.45-8.37z" fill="#a8abb2"/><path d="M1514.56 2042.68l3.53 26.34c.04.26.28.46.57.46s.54-.19.59-.46l5.07-29.55c0 .02-10.77-4.36-9.76 3.21zm-834.61 24.68s-4.29 24.28-6.39 48.31c-.82 9.39 6.42 17.55 15.84 17.94 32 1.33 100.46 3.92 125.02 2.83 3.69-.16 6.11-3.95 4.74-7.38-1.15-2.88-3.35-5.2-6.17-6.5l-113.08-51.97-19.96-3.23z" fill="#333435"/><linearGradient id="C" gradientUnits="userSpaceOnUse" x1="689.145" y1="2010.237" x2="693.039" y2="2049.179"><stop offset="0" stop-color="#fff"/><stop offset="1" stop-color="#efeff4"/></linearGradient><path d="M676.43 2053.09l3.45 29.04s19.81 9.22 33.33-1.16l-8.2-32.36-28.58 4.48z" fill="url(#C)"/><path d="M679.02 1507.17c-1.49 7.58-7.99 378.42 31.65 544.6.65 2.71-.73 5.51-3.31 6.56-6.08 2.48-18 6.08-32.28 6.56-4.42.15-8.39-2.73-9.64-6.97-11.33-38.56-65.63-231.74-72.71-416.28-7.91-206.21 0-7.02 0-7.02l4.64-127.46 81.65.01zm-129.15 572.85s-6.83 12.26-13.43 44.82c-1.19 5.88 2.92 11.51 8.89 12.1 10.57 1.04 26.84 2.38 39.87 2.29 6.01-.04 10.7-5.27 9.97-11.24-1.44-11.89-5.94-31.39-19.83-46.59l-25.47-1.38z" fill="#333435"/><linearGradient id="D" gradientUnits="userSpaceOnUse" x1="559.756" y1="2008.541" x2="559.756" y2="2037.357"><stop offset="0" stop-color="#fff"/><stop offset="1" stop-color="#efeff4"/></linearGradient><path d="M543.88 2042.67l8.05 43.91s7.96 5.92 23.71 1.63l-3.84-47.25-27.92 1.71z" fill="url(#D)"/><g fill="#333435"><path d="M522.13 1518.55c-32.42 195.66 7.03 483.58 20.34 539.93.81 3.45 3.6 6.09 7.1 6.67 5.94.98 15.72 1.79 25.36-1.01 3.32-.96 5.66-3.96 5.79-7.42 1.79-45.56-1.43-325.26 28.78-435.79a25.1 25.1 0 0 1 9.68-13.85l58.63-41.68 4.49-67.38-160.17 20.53z"/><path d="M728.71 1147.82c-97.16-1.61-204.36 25.51-204.36 25.51-28.96 168.98-5.06 363.89-5.06 363.89 75.22 19.72 160.06-12.06 160.06-12.06 12.5-70.63 70.83-269.41 70.83-269.41 47.47-5.89 37.16-44.85 69.36-62.95-24.56-28.47 13.27-14.67 8.24-36.08-34.34 10.67-69.1-8.41-99.07-8.9z"/></g><path d="M1015.69 1004.71c-9.54-11.53-21.62-6.07-21.62-6.07-14.3 60.39-89.26 109.36-166.28 133.3 5.03 21.42 16.61 57.65 41.17 86.12 127.82-71.87 146.73-213.35 146.73-213.35z" fill="#d7d9e0"/><linearGradient id="E" gradientUnits="userSpaceOnUse" x1="1068.702" y1="928.535" x2="1158.266" y2="850.653"><stop offset="0" stop-color="#fff"/><stop offset="1" stop-color="#efeff4"/></linearGradient><path d="M1013.37 1007.64c1 3.17-10.57 8.01-17.38-4.98-.24-6.22-4.02-32.88-.3-37.95 19.81-27 58.2-60.85 58.2-60.85 6.49 6.4 1.14 12.69 1.14 12.69l-18.63 19.4c3.9 7.04 8.65 12.98 10.88 21.5 1.69 6.45.66 13.34-2.6 19.21-3.27 5.89-7.73 13.55-11.95 19.54-7.97 11.36-19.36 11.44-19.36 11.44z" fill="url(#E)"/><linearGradient id="F" gradientUnits="userSpaceOnUse" x1="1010.055" y1="986.53" x2="1040.429" y2="946.81"><stop offset="0" stop-color="#fff"/><stop offset="1" stop-color="#efeff4"/></linearGradient><path d="M1028.27 948.55l-16.97 14.39-5.33 14.33 15.13 16.79s5.09-28.43 8.87-34.58 1.82-9.13-1.7-10.93z" fill="url(#F)"/><path d="M561.62 1267.4l-37.26-94.08s-90.75 61.66-105.67 139.84c17.15 1.26 48.35 5.72 78.89 21.14 6.7-36.91 64.04-66.9 64.04-66.9z" fill="#fff"/><linearGradient id="G" gradientUnits="userSpaceOnUse" x1="630.39" y1="1301.341" x2="658.428" y2="969.561"><stop offset="0" stop-color="#fff"/><stop offset="1" stop-color="#efeff4"/></linearGradient><path d="M630.3 1068.94l-30.91 89.4c-.51 1.48.1 3.12 1.47 3.88 8.43 4.66 38.79 18.13 75.37-5.07 3.81-2.42 6.41-6.36 6.98-10.83l10.01-77.38H630.3z" fill="url(#G)"/><path d="M571.63 1163.26l36.89-31.33 55.18 134.72-40.24 535.36-125.64 3.76a3.22 3.22 0 0 1-2.38-.95 3.21 3.21 0 0 1-.94-2.38l17.54-515.05s.48-111.3 12.31-114.08c11.83-2.77 47.28-10.05 47.28-10.05z" fill="#fff"/><g fill="#d7d9e0"><path d="M663.7 1259.74l21.37-127.81 18.29 16.08 38.56-.37 8.26 108.11-55.02 553.22a3.23 3.23 0 0 1-1.22 2.21c-.69.54-1.57.78-2.44.65l-68.04-9.81 40.24-542.28z"/><path d="M736.86 1147.78s61.98-4.27 97.76-18.04c42.02 74.68 52.94 76.87 52.94 76.87s-50.89 45.15-137.38 49.14c-86.48 3.99-13.32-107.97-13.32-107.97z"/></g><linearGradient id="H" gradientUnits="userSpaceOnUse" x1="679.604" y1="1293.477" x2="855.091" y2="1167.185"><stop offset="0" stop-color="#a8abb2"/></linearGradient><path d="M686.31 1265.57v13.1l49.99-2.91v-14.56z" fill="url(#H)"/><path d="M660.72 1298.28a1.93 1.93 0 0 1-.92-.23l-42.4-22.77c-.53-.29-.9-.81-1-1.42l-5.74-38.67-15.04-2.67c-.71-.13-1.29-.64-1.51-1.33l-16.36-53.14a1.93 1.93 0 0 1 1.28-2.41c1.01-.32 2.1.26 2.41 1.28l16.02 52.02 15.24 2.71c.82.14 1.45.8 1.57 1.62l5.8 39.08 41.55 22.31a1.94 1.94 0 0 1 .79 2.61c-.33.64-1 1.01-1.69 1.01zm10.08-13.25c-.25 0-.49-.06-.72-.19-.69-.4-.93-1.28-.54-1.97l22.17-38.87-3.65-21.88c-.1-.61.2-1.22.74-1.52l17.64-9.39-4.53-63.11c-.06-.8.54-1.49 1.34-1.55.93-.1 1.49.55 1.55 1.34l4.59 64.05c.04.57-.26 1.11-.76 1.38l-17.55 9.34 3.56 21.36a1.43 1.43 0 0 1-.17.95l-22.42 39.31c-.26.49-.75.75-1.25.75z" fill="#efeff4"/><path d="M641.04 1353.17s-101.89 57.58-136.27 8.41c-7.14-10.21-8.84-20.36-7.09-30.03-30.54-15.42-61.74-19.88-78.89-21.14-4.5 23.57-2.12 48.63 11.73 73.97 60.22 110.16 224-6.09 224-6.09l-13.48-25.12z" fill="#fff"/><path d="M628.79 1426.02l55.61-194.19c.63-2.2 2.51-3.81 4.79-4.08 10.07-1.18 39.27-4.48 72.98-7.33 40.6-3.43 87.75-6.22 115.93-3.85 4.01.34 6.43 4.57 4.64 8.18-16.02 32.41-81.93 164.27-114.93 207.46-1.09 1.43-2.78 2.27-4.58 2.25l-129.02-1.2c-3.76-.03-6.45-3.63-5.42-7.24z" fill="#333435"/><g fill="#888b8f"><path d="M767.93 1203.58l40.32-6.72a2.89 2.89 0 0 1 3.22 3.76l-3.99 12.09a2.91 2.91 0 0 1-2.36 1.96l-38.8 5.18c-2.01.27-3.66-1.56-3.2-3.53l2.47-10.56c.27-1.12 1.19-1.98 2.34-2.18z"/><path d="M737.74 1237.72l3.32-17.3a3.98 3.98 0 0 1 3.52-3.22l81.43-8.26c2.74-.28 4.94 2.23 4.29 4.91l-5.18 21.56c-.41 1.72-1.92 2.97-3.69 3.06l-79.57 4.01c-2.58.11-4.6-2.22-4.12-4.76z"/></g><linearGradient id="I" gradientUnits="userSpaceOnUse" x1="730.522" y1="1302.144" x2="627.717" y2="1366.786"><stop offset="0" stop-color="#fff"/><stop offset="1" stop-color="#efeff4"/></linearGradient><path d="M642.23 1379.1s-7.75-31.85-4.62-43.15c3.12-11.3 9.18-25.83 29.36-22.6s43.98 11.73 43.98 11.73-1.2 14.72-16.54 9.97l9.51 7.36s-1.36 11.79-14.31 5.49l8.85 9.76s-5.56 9.68-15.09 3.47c-9.54-6.21-14.11 21.8-41.14 17.97z" fill="url(#I)"/><path d="M545.11 1382.36c-9.57 0-18.35-1.41-25.05-5.09-.93-.51-1.28-1.68-.76-2.62.51-.93 1.68-1.28 2.62-.76 26.89 14.76 93.65-10.65 94.32-10.91.2-.07 13-4.52 17.54-13.38.49-.95 1.64-1.33 2.59-.84a1.94 1.94 0 0 1 .84 2.6c-5.26 10.26-19.07 15.05-19.66 15.25-2.09.8-41.36 15.75-72.44 15.75zm-36.74 51.32a1.93 1.93 0 0 1-1.93-1.86c-.04-1.07.8-1.96 1.86-2 77.09-2.65 121.06-37.95 121.49-38.31.82-.67 2.04-.55 2.72.27s.55 2.04-.27 2.71c-.44.37-45.34 36.48-123.81 39.18-.02.01-.04.01-.06.01z" fill="#efeff4"/><linearGradient id="J" gradientUnits="userSpaceOnUse" x1="738.456" y1="992.553" x2="814.002" y2="931.805"><stop offset="0" stop-color="#fff"/><stop offset="1" stop-color="#efeff4"/></linearGradient><path d="M703.16 968.98c1.01 1.4 32.36 110.69 32.36 110.69l-62.79 16.58-45.11-99.17c0-.01 58.72-51.47 75.54-28.1z" fill="url(#J)"/><path d="M652.56 1004.41a9.34 9.34 0 0 0-.87 8.18l19.37 53.28a8.89 8.89 0 0 0 1.19 2.26c2.79 3.83 12.66 15.32 24.12 4.51 9.76-9.22 18.86-17.55 27.36-20.07 4.97-1.47 10.15 1.48 11.56 6.46 2.9 10.27 8.34 31.1 10.58 50.28.56 4.81-2.72 9.22-7.47 10.15-12.54 2.45-37.17 6.52-58.1 5.37-3.44-.19-6.48-2.24-7.94-5.36-6.44-13.72-24.65-52.1-31.46-62.14-6.32-9.33-21.36-9.19-28.25-8.58-2.61.23-5.18-.62-7.13-2.38-5.84-5.27-15.46-17.43-1.64-32.18 3.44-3.67 3.18-9.49-.42-13-6.44-6.29-12.69-16.96-2.19-30.25 10.63-13.45 24.69-12.11 33.87-9.14 4.06 1.32 8.71-.05 11.05-3.61 1.04-1.59 2.73-2.78 5.45-2.81 5.12-.04 9.23-3.92 9.22-9.04-.02-8.78 3.36-19.53 18.31-24.33 27.41-8.81 44.81 17.59 46.69 37.39s-28.38 27.67-46.23 26.5c-13.11-.85-22.83 11.76-27.07 18.51z" fill="#333435"/><linearGradient id="K" gradientUnits="userSpaceOnUse" x1="609.051" y1="1299.537" x2="637.088" y2="967.757"><stop offset="0" stop-color="#fff"/><stop offset="1" stop-color="#efeff4"/></linearGradient><path d="M648.26 1076.96s-4.76-34.37-19.09-35.92-28.15 10.34-13.74 29.52c17.92 23.86 32.83 6.4 32.83 6.4z" fill="url(#K)"/><linearGradient id="L" gradientUnits="userSpaceOnUse" x1="1410.201" y1="1068.549" x2="1511.024" y2="1418.07"><stop offset="0" stop-color="#fff"/><stop offset="1" stop-color="#efeff4"/></linearGradient><path d="M1270.3 953.3c1.35-3.62 6.44-3.72 7.94-.15 5.52 13.2 17.72 35.91 38.08 41.96 1.03.3 2 .62 2.95.94.55-2.73.17-5.78-2.32-8.72-7.15-8.41 2.1-22.3 2.1-22.3s2.1 10.94 11.36 16.83c7.97 5.07 13.11 17.95 9.55 29.49-5.34 41.88-14.24 97.5 51.61 129.04s140.48-58.62 140.48-58.62l-28.68 106.54s-59.63 56.76-144.65-1.82c-85.02-58.59-46.83-164.2-46.83-164.2s-61.27-16.2-41.59-68.99z" fill="url(#L)"/><path d="M1552.55 919.38s50.71-35.59 77.8 27.95c4.95 11.61 33.51 13.53 36.43 37.11 1.51 12.17 10.52 21.92 22.64 23.78 30.2 4.63 76.73 20.31 84.18 72.74 5.68 40.02-14.72 55.19-36.13 60.44-15.72 3.86-26.17 19.15-22.99 35.03 3.05 15.23-1.5 32.83-27.88 46.75-59.12 31.19-118.15-73.9-118.15-73.9l-12.1-183.5-3.8-46.4z" fill="#333435"/><linearGradient id="M" gradientUnits="userSpaceOnUse" x1="1667.997" y1="466.55" x2="1440.727" y2="1793.609"><stop offset="0" stop-color="#fff"/><stop offset="1" stop-color="#efeff4"/></linearGradient><path d="M1583.28 985.77l19.38 96c2.32 9.59-11.53 11.67-21.36 12.47-16.8 1.37-26.23-2.61-33.07-14.96-.7-1.26-1.04-2.68-1.24-4.1l-10.41-75.46c-.83-5.99 2.41-11.8 7.94-14.25l20.08-8.91c7.74-3.43 16.69.98 18.68 9.21z" fill="url(#M)"/><linearGradient id="N" gradientUnits="userSpaceOnUse" x1="1593.794" y1="896.317" x2="1732.425" y2="679.803"><stop offset="0" stop-color="#fff"/><stop offset="1" stop-color="#efeff4"/></linearGradient><path d="M1502.97 935.04s-12.91 28.34.81 72.06 37.4 47.94 52.65 37.48 35.11-29.28 38.28-68.59c3.16-39.31-74.02-76.77-91.74-40.95z" fill="url(#N)"/><path d="M1565.4 972.88s-25.15-59.29-65.21-23.4l-3.32 15.08s-37.29-11.39-24.33-45.13 49.83-49.65 89.52-26.88 61.2 42.67 58.46 73.56-25.72 19.87-25.72 19.87-4.03-22.82-14.85-27.07-10.9 12.97-10.9 12.97l-3.65 1z" fill="#333435"/><linearGradient id="O" gradientUnits="userSpaceOnUse" x1="1618.906" y1="912.396" x2="1757.537" y2="695.882"><stop offset="0" stop-color="#fff"/><stop offset="1" stop-color="#efeff4"/></linearGradient><path d="M1574.41 982.67s-13.1-30.4 6.07-31.13 10.81 29.27 6.79 40.2l-12.86-9.07z" fill="url(#O)"/><linearGradient id="P" gradientUnits="userSpaceOnUse" x1="1479.512" y1="2044.905" x2="1625.931" y2="1213.121"><stop offset="0" stop-color="#fff"/><stop offset="1" stop-color="#efeff4"/></linearGradient><path d="M1622.13 1329.9l-90.09-15.27c-51.38 46.97-17.91 364.36-17.91 364.36s16.88 170.35 20.38 250.24c.55 12.53-4.68 18.64-11.26 29.31l-45.86 31.57-14.49 1.36c-7.28 5.59-1.14 11.63 18.03 17.3 11.74 6.26 30.9-7.78 61.22-21.15 16.23-1.75 35.34-6.12 38.13-16.58 1.35-9.77.53-11.63-1.02-13.39l-2.99-4.11h0 0l-10.71-14.73 20.8-219.15c1.1-13.14-3.73-30.93-9.92-42.57l45.69-347.19z" fill="url(#P)"/><linearGradient id="Q" gradientUnits="userSpaceOnUse" x1="1712.094" y1="1647.995" x2="1884.994" y2="1612.948"><stop offset="0" stop-color="#fff"/><stop offset="1" stop-color="#efeff4"/></linearGradient><path d="M1654.7 1958.83l-3.32-4.68h0 0l-10.88-15.34 28.11-221.53c1.1-13.14-11.04-28.54-17.24-40.19h0c-5.98-169.94 117.39-270.45 2.86-352.42l-64.86 23.6c-6.86 43.68-3.78 61.39-4.87 102.64-2.95 111.67-1.36 213.35 5.51 237.97l19.44 240.33c.55 12.53-4.16 20.56-10.73 31.24l-25.09 27.61c-7.86 4.57 7.17-3.8-25.74 5.89-7.28 5.59-.3 9.61 18.86 15.29 11.74 6.26 29.05-7.78 59.37-21.15 16.23-1.75 30.53-6.6 33.31-17.06 1.39-4.7-1.76-8.12-4.77-11.94l.04-.26z" fill="url(#Q)"/><linearGradient id="R" gradientUnits="userSpaceOnUse" x1="1702.831" y1="472.515" x2="1475.561" y2="1799.577"><stop offset="0" stop-color="#fff"/><stop offset="1" stop-color="#efeff4"/></linearGradient><path d="M1652.03 1323.17c-55.11-116.05 32.15-207.82 32.15-207.82-36.94-35.46-106.65-40.55-136.09-41.05-8.8-.15-17.08 4.03-22.31 11.12-14.78 20.05-42.67 63.65-35.36 98.89 5.76 27.77 41.62 130.33 41.62 130.33s64.99 41.56 119.99 8.53z" fill="url(#R)"/><g fill="#f3d33f"><path d="M1649.81 1321.84c-46.75 23.56-101.34 21.72-128.57 9.03-7.34 7.67-13.48 45.2-14.5 68.36 12.28-5.86 56.4 11.09 74.62 35.11l4.2.45c32.59-38.54 77.32-60.83 106.48-66.75-8.45-15.89-25.8-37.17-42.23-46.2zm-154.46-118.76c28.7 7.8 85.34 2.58 145.12-8.16l7.42-19.06c-17.51-21.79-34.41-43.52-51.55-49.22-5.49-1.83-11.51.15-15.15 4.65-9.69 11.96-30.58 26.57-40.15 42.06-15.46-13.51-33.6-27.51-40.77-37.73-.93-1.32-2.48-.81-3.54.41-20.02 23.02-28.76 43.28-1.38 67.05z"/><path d="M1601.9 1077.94c-.35 13.45-7.55 31.1-17.69 50.56l17.69 2.04c5.45-19.16 10.01-37.2 9.68-49.21l-9.68-3.39zm-62.08-2.48c-26.24 27.91-37.99 47.46-44.46 63.97l10.35 4.81c5.47-18.61 21.54-43.67 41.06-70.83-.58-2.18-3.2-1-6.95 2.05z"/></g><linearGradient id="S" gradientUnits="userSpaceOnUse" x1="1828.595" y1="494.053" x2="1601.324" y2="1821.116"><stop offset="0" stop-color="#fff"/><stop offset="1" stop-color="#efeff4"/></linearGradient><path d="M1684.18 1115.35s169.09 120.97 21.62 248.09c0 0-5.62 6.36-16.68 9.67-5.58 1.67-22.1 14.17-30.48 20.68-2.69 2.1-6.58 1.38-8.39-1.51h0a7.84 7.84 0 0 1-.44-7.51l20.93-44.26c5.81-5.43 14.71-5.81 20.97-.91h0c3.99 3.13 9.84 1.82 12.08-2.74 11.4-23.22 32.92-91.5-55.18-168.66-3.31-2.9-4.15-7.7-2.12-11.6 6.19-11.9 20.35-35.51 37.69-41.25z" fill="url(#S)"/></svg>